<svg xmlns="http://www.w3.org/2000/svg" viewBox="0 0 344.14 125.34"><defs><style>.cls-1,.cls-2{fill:#fff;}.cls-2{fill-rule:evenodd;}</style></defs><title>logo_divinf</title><g id="Capa_2" data-name="Capa 2"><g id="Sorteo_1:1" data-name="Sorteo 1:1"><path class="cls-1" d="M121.18,58.79h8.5a16.33,16.33,0,0,1,4.39.44,7.75,7.75,0,0,1,3.48,2.12,10.08,10.08,0,0,1,2.2,3.74,17.07,17.07,0,0,1,.75,5.45,15.19,15.19,0,0,1-.7,4.9,10.11,10.11,0,0,1-2.47,4.07,8.3,8.3,0,0,1-3.27,1.85,14.3,14.3,0,0,1-4.12.48h-8.76Zm4.65,3.9V78h3.48a13,13,0,0,0,2.81-.22,4.31,4.31,0,0,0,1.88-1,4.8,4.8,0,0,0,1.22-2.23,15.2,15.2,0,0,0,.47-4.22,13.89,13.89,0,0,0-.47-4.1A5.21,5.21,0,0,0,133.9,64a4.51,4.51,0,0,0-2.16-1.08,20.69,20.69,0,0,0-3.82-.22Z"/><rect class="cls-1" x="144.31" y="58.79" width="4.66" height="23.05"/><polygon class="cls-1" points="159.28 81.84 151.04 58.79 156.09 58.79 161.92 75.85 167.57 58.79 172.51 58.79 164.25 81.84 159.28 81.84"/><rect class="cls-1" x="174.74" y="58.79" width="4.66" height="23.05"/><path class="cls-1" d="M182.65,74.34l4.53-.44a5.52,5.52,0,0,0,1.66,3.35,5,5,0,0,0,3.37,1.07,5.21,5.21,0,0,0,3.39-.95,2.85,2.85,0,0,0,1.14-2.23,2.1,2.1,0,0,0-.48-1.39,4,4,0,0,0-1.67-1c-.55-.19-1.79-.52-3.73-1a12.46,12.46,0,0,1-5.25-2.29,6,6,0,0,1-1.13-7.93,6.27,6.27,0,0,1,2.88-2.33,11.45,11.45,0,0,1,4.54-.81q4.33,0,6.53,1.91a6.75,6.75,0,0,1,2.31,5.08l-4.66.2A4,4,0,0,0,194.8,63a4.77,4.77,0,0,0-3-.77,5.31,5.31,0,0,0-3.18.83,1.69,1.69,0,0,0-.74,1.43,1.78,1.78,0,0,0,.7,1.4,12.12,12.12,0,0,0,4.27,1.54,23,23,0,0,1,5,1.66,6.55,6.55,0,0,1,2.55,2.34,6.9,6.9,0,0,1,.92,3.68,6.81,6.81,0,0,1-1.1,3.71,6.66,6.66,0,0,1-3.12,2.57,13,13,0,0,1-5,.84q-4.38,0-6.72-2a8.83,8.83,0,0,1-2.8-5.89"/><rect class="cls-1" x="205.17" y="58.79" width="4.65" height="23.05"/><path class="cls-1" d="M213.32,70.46a14.76,14.76,0,0,1,1.05-5.92,10.86,10.86,0,0,1,2.15-3.16,8.92,8.92,0,0,1,3-2.07,12.59,12.59,0,0,1,5-.92,10.82,10.82,0,0,1,8.15,3.17q3.06,3.15,3.06,8.79t-3,8.73a10.73,10.73,0,0,1-8.11,3.15,10.86,10.86,0,0,1-8.18-3.13q-3-3.13-3-8.64m4.79-.16a8.68,8.68,0,0,0,1.81,5.94,5.93,5.93,0,0,0,4.59,2,5.83,5.83,0,0,0,4.57-2q1.78-2,1.79-6t-1.74-5.92a6.44,6.44,0,0,0-9.26,0c-1.17,1.31-1.76,3.3-1.76,6m3.53-12.83,2.17-4.71h4.95l-4.32,4.71Z"/><polygon class="cls-1" points="239.36 81.84 239.36 58.79 243.89 58.79 253.32 74.18 253.32 58.79 257.65 58.79 257.65 81.84 252.98 81.84 243.68 66.81 243.68 81.84 239.36 81.84"/><rect class="cls-1" x="121.05" y="97.43" width="4.66" height="23.05"/><polygon class="cls-1" points="130.19 120.49 130.19 97.44 134.72 97.44 144.15 112.83 144.15 97.44 148.48 97.44 148.48 120.49 143.81 120.49 134.51 105.45 134.51 120.49 130.19 120.49"/><polygon class="cls-1" points="153.43 120.49 153.43 97.44 169.24 97.44 169.24 101.33 158.09 101.33 158.09 106.79 167.71 106.79 167.71 110.69 158.09 110.69 158.09 120.49 153.43 120.49"/><path class="cls-1" d="M172.13,109.1a14.67,14.67,0,0,1,1.05-5.91,10.92,10.92,0,0,1,2.15-3.16,9.05,9.05,0,0,1,3-2.08,12.81,12.81,0,0,1,5-.91,10.8,10.8,0,0,1,8.15,3.16q3.06,3.17,3.06,8.79c0,3.72-1,6.64-3,8.74a12.15,12.15,0,0,1-16.3,0q-3-3.15-3-8.65m4.8-.15q0,3.92,1.8,5.93a5.9,5.9,0,0,0,4.6,2,5.84,5.84,0,0,0,4.57-2c1.19-1.34,1.78-3.34,1.78-6s-.58-4.61-1.74-5.91a5.87,5.87,0,0,0-4.61-2,5.93,5.93,0,0,0-4.64,2c-1.18,1.32-1.76,3.3-1.76,6"/><path class="cls-1" d="M198.14,120.49V97.43h9.8a16.58,16.58,0,0,1,5.37.63,5.25,5.25,0,0,1,2.68,2.21,6.63,6.63,0,0,1,1,3.63,6.12,6.12,0,0,1-1.53,4.28,7.28,7.28,0,0,1-4.56,2.13,10.81,10.81,0,0,1,2.49,1.94,25.74,25.74,0,0,1,2.65,3.74l2.82,4.5H213.3l-3.36-5a33.86,33.86,0,0,0-2.46-3.39,3.67,3.67,0,0,0-1.4-1,7.8,7.8,0,0,0-2.34-.25h-.94v9.62Zm4.66-13.31h3.44a17.73,17.73,0,0,0,4.18-.28,2.53,2.53,0,0,0,1.31-1,3,3,0,0,0,.47-1.73,2.77,2.77,0,0,0-.62-1.88,2.85,2.85,0,0,0-1.75-.91c-.38,0-1.51-.08-3.4-.08H202.8Z"/><polygon class="cls-1" points="221.32 120.49 221.32 97.44 228.29 97.44 232.47 113.16 236.61 97.44 243.59 97.44 243.59 120.49 239.27 120.49 239.27 102.34 234.69 120.49 230.21 120.49 225.65 102.34 225.65 120.49 221.32 120.49"/><path class="cls-1" d="M269,120.49h-5.06l-2-5.24h-9.22l-1.9,5.24h-4.94l9-23.06h4.92Zm-8.57-9.12-3.17-8.56-3.12,8.56Zm-5.85-15.26,2.17-4.7h5l-4.33,4.7Z"/><polygon class="cls-1" points="276.66 120.49 276.66 101.33 269.82 101.33 269.82 97.44 288.14 97.44 288.14 101.33 281.32 101.33 281.32 120.49 276.66 120.49"/><rect class="cls-1" x="291.01" y="97.43" width="4.66" height="23.05"/><path class="cls-1" d="M314.85,112l4.51,1.43a10.1,10.1,0,0,1-3.45,5.61,10.89,10.89,0,0,1-13.68-1.3q-3-3.15-3-8.58,0-5.76,3-8.94A10.18,10.18,0,0,1,310.07,97a9.57,9.57,0,0,1,6.87,2.5,9.14,9.14,0,0,1,2.36,4.25l-4.61,1.1a4.77,4.77,0,0,0-4.86-3.87,5.23,5.23,0,0,0-4.16,1.84c-1.06,1.23-1.6,3.21-1.6,6,0,2.92.53,5,1.58,6.23a5.08,5.08,0,0,0,4.09,1.85,4.69,4.69,0,0,0,3.19-1.17,6.91,6.91,0,0,0,1.92-3.72"/><path class="cls-1" d="M344.14,120.49h-5.06l-2-5.24h-9.22l-1.9,5.24H321l9-23.06h4.92Zm-8.57-9.12-3.17-8.56-3.12,8.56Z"/><path class="cls-2" d="M45.32,34.71h1.14L45.37,53h0A27,27,0,1,0,69.84,68.65L86,59.94A45.32,45.32,0,1,1,45.32,34.71"/><polygon class="cls-2" points="95.31 14.03 99.85 17.21 79.63 46.88 88.94 53.21 48.94 74.85 51.72 27.86 61.02 34.2 84.33 0 88.85 3.08 85.81 7.64 82.66 12.27 87.33 15.44 84.14 20.12 81.06 24.64 85.86 27.91 88.93 23.39 92.12 18.71 95.31 14.03"/></g></g></svg>